<?xml version="1.0" standalone="no"?>
<!DOCTYPE svg PUBLIC "-//W3C//DTD SVG 20010904//EN"
 "http://www.w3.org/TR/2001/REC-SVG-20010904/DTD/svg10.dtd">
<svg version="1.0" xmlns="http://www.w3.org/2000/svg"
 width="240.000000pt" height="240.000000pt" viewBox="0 0 240.000000 240.000000"
 preserveAspectRatio="xMidYMid meet">

<g transform="translate(0.000000,240.000000) scale(0.100000,-0.100000)"
fill="#000000" stroke="none">
<path d="M196 1328 c-14 -20 -16 -89 -16 -555 0 -520 1 -534 20 -553 19 -19
33 -20 323 -20 258 0 306 2 325 16 l22 15 0 543 c0 513 -1 544 -18 559 -16 15
-54 17 -330 17 -310 0 -311 0 -326 -22z m505 -105 c21 -27 21 -33 16 -231 -3
-138 -9 -207 -17 -217 -16 -20 -329 -22 -348 -3 -9 9 -12 73 -12 227 0 185 2
217 17 233 14 16 34 18 169 18 l153 0 22 -27z m63 -549 c24 -9 20 -43 -6 -49
-13 -3 -124 -4 -247 -3 -202 3 -225 5 -235 21 -8 14 -8 20 4 27 16 11 458 14
484 4z m11 -119 c0 -19 -8 -20 -244 -23 -145 -1 -249 2 -254 7 -5 5 -7 17 -4
26 6 13 36 15 254 13 240 -3 248 -4 248 -23z m0 -100 c0 -19 -8 -20 -244 -23
-145 -1 -249 2 -254 7 -5 5 -7 17 -4 26 6 13 36 15 254 13 240 -3 248 -4 248
-23z m-11 -71 c21 -8 21 -40 0 -48 -20 -8 -458 -8 -478 0 -19 7 -21 40 -3 47
18 8 462 8 481 1z"/>
</g>
</svg>
